<svg id="Capa_1" enable-background="new 0 0 512 512" height="512" viewBox="0 0 512 512" width="512" xmlns="http://www.w3.org/2000/svg" xmlns:xlink="http://www.w3.org/1999/xlink"><linearGradient id="SVGID_1_" gradientUnits="userSpaceOnUse" x1="0" x2="512" y1="256" y2="256"><stop offset="0" stop-color="#ffdbed" stop-opacity="0"/><stop offset="1" stop-color="#ffdbed"/></linearGradient><g><g><path d="m418.32 2.5c-55.666-9.521-178.298 12.183-200.004 105.017-14.431 61.722-14.007 112.075-50.427 113.02-21.67.562-32.97-44.31-62.889-48.001-39.047-4.817-66.145 27.695-83.057 57.138-37.205 64.772-25.571 174.918 23.354 228.632 118.488 130.086 259.197-5.952 319.358-112.309 38.585-68.213 125.637-123.352 143.767-200.248 15.177-64.376-18.503-131.003-90.102-143.249z" fill="url(#SVGID_1_)"/></g><g><g><g><path d="m350.232 500.339h-188.464c-16.569 0-30-13.431-30-30v-380.678c0-16.569 13.431-30 30-30h188.464c16.569 0 30 13.431 30 30v380.678c0 16.569-13.431 30-30 30z" fill="#2626bc" opacity=".1"/><path d="m350.232 476.339h-188.464c-16.569 0-30-13.431-30-30v-380.678c0-16.569 13.431-30 30-30h188.464c16.569 0 30 13.431 30 30v380.678c0 16.569-13.431 30-30 30z" fill="#6583fe"/><path d="m131.77 78.57h248.46v354.86h-248.46z" fill="#fff"/><path d="m180.323 190.654-5.394 5.39c-1.954 1.952-1.954 5.119-.001 7.072l5.4 5.4c2.813 2.813 4.393 6.628 4.393 10.607v214.307h-52.95v-354.86h52.95v101.473c-.001 3.981-1.583 7.798-4.398 10.611z" fill="#ff5ba8"/><path d="m350.232 481.339h-188.464c-19.299 0-35-15.701-35-35v-380.678c0-19.299 15.701-35 35-35h188.465c19.299 0 35 15.701 35 35v380.678c-.001 19.299-15.702 35-35.001 35zm-188.464-440.678c-13.785 0-25 11.215-25 25v380.678c0 13.785 11.215 25 25 25h188.465c13.785 0 25-11.215 25-25v-380.678c0-13.785-11.215-25-25-25z" fill="#2626bc"/><g><path d="m273.483 63.031h-34.966c-2.761 0-5-2.239-5-5s2.239-5 5-5h34.966c2.761 0 5 2.239 5 5s-2.239 5-5 5z" fill="#b7c5ff"/></g><circle cx="296.813" cy="58.03" fill="#b7c5ff" r="5.002"/></g><g><path d="m163.245 150.613v-14.681c0-2.761-2.239-5-5-5s-5 2.239-5 5v14.681c0 2.761 2.239 5 5 5s5-2.238 5-5z" fill="#fff"/></g><g><path d="m205.339 143.768h74.681c2.761 0 5-2.239 5-5s-2.239-5-5-5h-74.681c-2.761 0-5 2.239-5 5s2.239 5 5 5z" fill="#8399fe"/></g><g><path d="m205.339 162.163h44.681c2.761 0 5-2.239 5-5s-2.239-5-5-5h-44.681c-2.761 0-5 2.239-5 5s2.239 5 5 5z" fill="#8399fe"/></g><g><path d="m163.245 206.925v-14.681c0-2.761-2.239-5-5-5s-5 2.239-5 5v14.681c0 2.761 2.239 5 5 5s5-2.238 5-5z" fill="#fff"/></g><g><path d="m163.245 263.237v-14.681c0-2.761-2.239-5-5-5s-5 2.239-5 5v14.681c0 2.761 2.239 5 5 5s5-2.239 5-5z" fill="#fff"/></g><g><path d="m163.245 319.549v-14.681c0-2.761-2.239-5-5-5s-5 2.239-5 5v14.681c0 2.761 2.239 5 5 5s5-2.239 5-5z" fill="#fff"/></g><g><path d="m363.42 197.24v90.19c0 5.52-4.47 10-10 10h-139.17c-5.53 0-10-4.48-10-10v-90.19c0-5.52 4.47-10 10-10h139.17c5.53 0 10 4.48 10 10z" fill="#ff7eb8"/><path d="m351.41 194.75c0 7.05-5.72 12.77-12.76 12.77-7.05 0-12.77-5.72-12.77-12.77 0-2.82.91-5.41 2.45-7.51h20.63c1.54 2.1 2.45 4.69 2.45 7.51z" fill="#ff5ba8"/><circle cx="338.645" cy="187.245" fill="#ffdbed" r="12.764"/></g><g><path d="m363.42 347.31v86.12h-159.17v-86.12c0-5.52 4.47-10 10-10h139.17c5.53 0 10 4.48 10 10z" fill="#8399fe"/><path d="m351.41 344.82c0 7.05-5.72 12.77-12.76 12.77-7.05 0-12.77-5.72-12.77-12.77 0-2.8.91-5.4 2.45-7.51h20.63c1.54 2.11 2.45 4.71 2.45 7.51z" fill="#6583fe"/><circle cx="338.645" cy="337.313" fill="#d2deff" r="12.764"/></g><path d="m358.423 117.559h-155.182c-2.761 0-5-2.239-5-5v-11.023c0-2.761 2.239-5 5-5h155.182c2.761 0 5 2.239 5 5v11.023c0 2.761-2.239 5-5 5z" fill="#d2deff"/><path d="m358.423 96.536h-20.528v21.023h20.528c2.761 0 5-2.239 5-5v-11.023c0-2.762-2.239-5-5-5z" fill="#9fb0fe"/><g><g><path d="m298.143 251.763h-65.681c-2.761 0-5 2.239-5 5s2.239 5 5 5h65.681c2.761 0 5-2.239 5-5s-2.239-5-5-5z" fill="#fff"/></g><g><path d="m322.771 260.021 10.54-21.535c1.626-3.322-.793-7.198-4.491-7.198-1.909 0-3.652 1.087-4.491 2.802l-10.54 21.535c-1.626 3.322.793 7.198 4.491 7.198 1.909 0 3.651-1.087 4.491-2.802z" fill="#02ffb3"/></g><g><path d="m298.143 232.335h-65.681c-2.761 0-5 2.239-5 5s2.239 5 5 5h65.681c2.761 0 5-2.239 5-5s-2.239-5-5-5z" fill="#fff"/></g><path d="m244.143 208.99h-11.681c-2.761 0-5 2.239-5 5s2.239 5 5 5h11.681c2.761 0 5-2.239 5-5s-2.239-5-5-5z" fill="#fff"/></g><g><g><path d="m298.143 401.931h-65.681c-2.761 0-5 2.239-5 5s2.239 5 5 5h65.681c2.761 0 5-2.239 5-5s-2.239-5-5-5z" fill="#fff"/></g><g><path d="m322.771 410.189 10.54-21.535c1.626-3.322-.793-7.198-4.491-7.198-1.909 0-3.652 1.087-4.491 2.802l-10.54 21.535c-1.626 3.322.793 7.198 4.491 7.198 1.909 0 3.651-1.087 4.491-2.802z" fill="#02ffb3"/></g><g><path d="m298.143 382.504h-65.681c-2.761 0-5 2.239-5 5s2.239 5 5 5h65.681c2.761 0 5-2.239 5-5s-2.239-5-5-5z" fill="#fff"/></g><path d="m244.143 359.158h-11.681c-2.761 0-5 2.239-5 5s2.239 5 5 5h11.681c2.761 0 5-2.239 5-5s-2.239-5-5-5z" fill="#fff"/></g></g><path d="m429.288 271.054c-7.88 0-14.291-6.411-14.291-14.292s6.411-14.292 14.291-14.292c7.881 0 14.292 6.411 14.292 14.292s-6.411 14.292-14.292 14.292zm0-18.583c-2.366 0-4.291 1.925-4.291 4.292s1.925 4.292 4.291 4.292 4.292-1.925 4.292-4.292-1.926-4.292-4.292-4.292z" fill="#ff5ba8"/><path d="m87.757 131.851c-7.881 0-14.292-6.411-14.292-14.292s6.411-14.292 14.292-14.292c7.88 0 14.291 6.411 14.291 14.292s-6.411 14.292-14.291 14.292zm0-18.583c-2.366 0-4.292 1.925-4.292 4.292s1.926 4.292 4.292 4.292 4.291-1.925 4.291-4.292-1.925-4.292-4.291-4.292z" fill="#6583fe"/><path d="m87.757 79.031c-2.762 0-5-2.239-5-5 0-3.309-2.691-6-6-6-2.762 0-5-2.239-5-5s2.238-5 5-5c3.309 0 6-2.691 6-6 0-2.761 2.238-5 5-5s5 2.239 5 5c0 3.309 2.691 6 6 6 2.762 0 5 2.239 5 5s-2.238 5-5 5c-3.309 0-6 2.691-6 6 0 2.761-2.238 5-5 5z" fill="#01eca5"/><g fill="#6583fe"><path d="m429.288 340.549c-2.762 0-5-2.239-5-5 0-3.309-2.691-6-6-6-2.762 0-5-2.239-5-5s2.238-5 5-5c3.309 0 6-2.691 6-6 0-2.761 2.238-5 5-5s5 2.239 5 5c0 3.309 2.691 6 6 6 2.762 0 5 2.239 5 5s-2.238 5-5 5c-3.309 0-6 2.691-6 6 0 2.762-2.238 5-5 5z"/><path d="m449.58 234.99c-2.762 0-5-2.239-5-5 0-3.309-2.691-6-6-6-2.762 0-5-2.239-5-5s2.238-5 5-5c3.309 0 6-2.691 6-6 0-2.761 2.238-5 5-5s5 2.239 5 5c0 3.309 2.691 6 6 6 2.762 0 5 2.239 5 5s-2.238 5-5 5c-3.309 0-6 2.691-6 6 0 2.761-2.238 5-5 5z"/></g></g></g></svg>