<svg width="20" height="20" viewBox="0 0 20 20" fill="none" xmlns="http://www.w3.org/2000/svg">
<path d="M14.9999 11.6667C14.0794 11.6667 13.3333 10.9205 13.3333 9.99999C13.3333 9.07952 14.0794 8.33333 14.9999 8.33333C15.9204 8.33333 16.6666 9.07952 16.6666 9.99999C16.6666 10.442 16.491 10.8659 16.1784 11.1785C15.8659 11.4911 15.4419 11.6667 14.9999 11.6667ZM9.99992 11.6667C9.07944 11.6667 8.33325 10.9205 8.33325 9.99999C8.33325 9.07952 9.07944 8.33333 9.99992 8.33333C10.9204 8.33333 11.6666 9.07952 11.6666 9.99999C11.6666 10.442 11.491 10.8659 11.1784 11.1785C10.8659 11.4911 10.4419 11.6667 9.99992 11.6667ZM4.99992 11.6667C4.07944 11.6667 3.33325 10.9205 3.33325 9.99999C3.33325 9.07952 4.07944 8.33333 4.99992 8.33333C5.92039 8.33333 6.66658 9.07952 6.66658 9.99999C6.66658 10.442 6.49099 10.8659 6.17843 11.1785C5.86587 11.4911 5.44195 11.6667 4.99992 11.6667Z" fill="white"/>
</svg>
