<svg width="50" height="50" viewBox="0 0 50 50" fill="none" xmlns="http://www.w3.org/2000/svg">
<path d="M25.0541 4.16667C14.8602 4.16536 6.1704 11.5583 4.53828 21.6207C2.90617 31.6831 8.81369 41.4437 18.4854 44.6646C19.527 44.8521 19.9 44.2125 19.9 43.6625C19.9 43.1688 19.8833 41.8604 19.877 40.1208C14.0958 41.3708 12.875 37.3333 12.875 37.3333C12.4944 36.077 11.6762 34.9986 10.5687 34.2938C8.6937 33.0042 10.7125 33.0333 10.7125 33.0333C12.0472 33.2164 13.2219 34.0072 13.8937 35.175C14.4623 36.2089 15.4203 36.9728 16.5548 37.2971C17.6892 37.6214 18.9062 37.4792 19.9354 36.9021C20.0321 35.8479 20.5011 34.8627 21.2583 34.1229C16.6458 33.6 11.7958 31.8167 11.7958 23.8521C11.7702 21.7921 12.5352 19.8006 13.9333 18.2875C13.3007 16.4944 13.3752 14.5276 14.1416 12.7875C14.1416 12.7875 15.8854 12.2271 19.8541 14.9146C23.258 13.9813 26.8503 13.9813 30.2541 14.9146C34.225 12.225 35.9666 12.7875 35.9666 12.7875C36.7366 14.5268 36.8112 16.495 36.1749 18.2875C37.5782 19.8005 38.3425 21.7972 38.3083 23.8604C38.3083 31.8458 33.4541 33.6 28.825 34.1146C29.8235 35.1355 30.3357 36.5361 30.2312 37.9604C30.2312 40.7396 30.2062 42.9813 30.2062 43.6625C30.2062 44.2188 30.577 44.8646 31.6374 44.6604C41.3051 41.4341 47.2063 31.6729 45.5708 21.6132C43.9353 11.5534 35.2459 4.16434 25.0541 4.16667Z" fill="#6E62E4"/>
</svg>
