<svg width="50" height="50" viewBox="0 0 50 50" fill="none" xmlns="http://www.w3.org/2000/svg">
<path d="M27.0833 43.75H18.75V18.75H27.0833V22.9167C28.8597 20.6568 31.5534 19.3095 34.4271 19.2437C39.595 19.2724 43.765 23.4779 43.75 28.6458V43.75H35.4167V29.6875C35.0834 27.3596 33.087 25.6325 30.7354 25.6375C29.7068 25.67 28.7359 26.1204 28.0467 26.8846C27.3576 27.6489 27.0097 28.661 27.0833 29.6875V43.75ZM14.5833 43.75H6.25V18.75H14.5833V43.75ZM10.4167 14.5833C8.11548 14.5833 6.25 12.7179 6.25 10.4167C6.25 8.11548 8.11548 6.25 10.4167 6.25C12.7179 6.25 14.5833 8.11548 14.5833 10.4167C14.5833 11.5217 14.1443 12.5815 13.3629 13.3629C12.5815 14.1443 11.5217 14.5833 10.4167 14.5833Z" fill="#6E62E4"/>
</svg>
