<svg id="Capa_1" enable-background="new 0 0 512 512" height="512" viewBox="0 0 512 512" width="512" xmlns="http://www.w3.org/2000/svg" xmlns:xlink="http://www.w3.org/1999/xlink"><linearGradient id="SVGID_1_" gradientUnits="userSpaceOnUse" x1="17.284" x2="542.345" y1="161.323" y2="342.886"><stop offset=".0485" stop-color="#ffdbed"/><stop offset=".9993" stop-color="#d2deff"/></linearGradient><g><path d="m505.626 291.916c-11.826-34.61-38.138-60.16-69.852-72.202-16.43-6.239-27.346-21.856-27.587-39.429-.005-.384-.012-.769-.021-1.154-1.507-64.582-55.488-116.33-120.077-115.221-38.094.654-71.788 19.355-92.905 47.92-18.185 24.599-46.49 39.965-77.08 39.949-.898 0-1.797.009-2.7.029-61.917 1.354-114.567 54.478-115.393 116.404-.879 65.932 52.303 119.654 118.032 119.654 50.947 0 94.349-32.277 110.886-77.497 4.327-11.832 17.152-18.174 29.283-14.772.151.042.303.085.455.127 11.099 3.064 18.458 13.64 17.55 25.119-1.217 15.383.581 31.255 5.798 46.796 20.521 61.135 87.188 94.685 148.493 74.68 62.711-20.465 96.379-88.185 75.118-150.403z" fill="url(#SVGID_1_)"/><path d="m475.324 105.073v254.578c0 8.291-6.729 15.019-15.019 15.019h-408.61c-8.291 0-15.019-6.729-15.019-15.019v-254.578c0-8.291 6.729-15.019 15.019-15.019h408.609c8.291-.001 15.02 6.728 15.02 15.019z" fill="#2626bc" opacity=".1"/><path d="m293.717 468.5h-113.567l22.711-90.021h68.145z" fill="#9fb0fe"/><path d="m278.916 409.82h-83.965l7.91-31.342h68.145z" fill="#8399fe"/><path d="m437.193 126.103v254.578c0 8.291-6.729 15.019-15.019 15.019h-370.479c-8.291 0-15.019-6.729-15.019-15.019v-254.578c0-8.291 6.729-15.019 15.019-15.019h370.478c8.291-.001 15.02 6.728 15.02 15.019z" fill="#fff"/><path d="m129.88 290.35h90.087c2.833 0 5.129-2.296 5.129-5.129s-2.296-5.129-5.129-5.129h-90.087c-2.833 0-5.129 2.296-5.129 5.129s2.297 5.129 5.129 5.129z" fill="#6583fe"/><path d="m79.936 290.35h24.606c2.833 0 5.129-2.296 5.129-5.129s-2.296-5.129-5.129-5.129h-24.606c-2.833 0-5.129 2.296-5.129 5.129s2.296 5.129 5.129 5.129z" fill="#ffa8cf"/><path d="m79.936 310.694h140.031c2.833 0 5.129-2.296 5.129-5.129 0-2.832-2.296-5.129-5.129-5.129h-140.031c-2.833 0-5.129 2.296-5.129 5.129 0 2.832 2.296 5.129 5.129 5.129z" fill="#b7c5ff"/><path d="m437.193 249.241v-123.138c0-8.291-6.729-15.019-15.019-15.019h-370.479c-8.291 0-15.019 6.729-15.019 15.019v123.138z" fill="#97ffd2"/><path d="m437.193 159.317v-33.214c0-8.295-6.724-15.019-15.019-15.019h-370.479c-8.295 0-15.019 6.724-15.019 15.019v33.214z" fill="#ff7eb8"/><path d="m36.676 345.243v35.435c0 8.295 6.724 15.019 15.019 15.019h370.478c8.295 0 15.019-6.724 15.019-15.019v-35.435z" fill="#b7c5ff"/><path d="m475.323 127.143v325.223c0 8.867-7.19 16.057-16.057 16.057h-181.269c-8.867 0-16.057-7.19-16.057-16.057v-325.223c0-8.867 7.19-16.057 16.057-16.057h181.269c8.867 0 16.057 7.19 16.057 16.057z" fill="#fff"/><ellipse cx="261.939" cy="264.98" fill="#d2deff" rx="65.258" ry="65.965"/><path d="m475.318 127.147v168.248h-213.381v-168.248c0-8.871 7.189-16.059 16.059-16.059h181.273c8.861 0 16.049 7.188 16.049 16.059z" fill="#ffc4df"/><path d="m327.194 264.979c0 10.973-2.643 21.315-7.339 30.416h-57.918v-96.383c36.042-.001 65.257 29.534 65.257 65.967z" fill="#ffa8cf"/><path d="m432.242 133.222 7.133-22.138h-141.486l7.133 22.138c1.033 3.206 3.989 5.376 7.325 5.376h112.57c3.335-.001 6.292-2.17 7.325-5.376z" fill="#b7c5ff"/><ellipse cx="261.939" cy="253.467" fill="#ff7eb8" rx="65.258" ry="65.965"/><path d="m274.747 260.609c3.873-3.531 6.324-8.619 6.324-14.285 0-10.634-8.582-19.285-19.132-19.285s-19.133 8.651-19.133 19.285c0 5.666 2.452 10.754 6.325 14.285-3.873 3.532-6.325 8.619-6.325 14.286 0 2.762 2.238 5 5 5s5-2.238 5-5c0-5.12 4.097-9.286 9.133-9.286 5.035 0 9.132 4.166 9.132 9.286 0 2.762 2.238 5 5 5s5-2.238 5-5c0-5.667-2.451-10.754-6.324-14.286zm-21.94-14.285c0-5.12 4.097-9.285 9.133-9.285 5.035 0 9.132 4.165 9.132 9.285s-4.097 9.285-9.132 9.285c-5.037 0-9.133-4.165-9.133-9.285z" fill="#fff"/><path d="m348.561 349.062h90.087c2.833 0 5.129-2.296 5.129-5.129 0-2.832-2.296-5.129-5.129-5.129h-90.087c-2.833 0-5.129 2.296-5.129 5.129s2.296 5.129 5.129 5.129z" fill="#6583fe"/><path d="m298.616 349.062h24.606c2.833 0 5.129-2.296 5.129-5.129 0-2.832-2.296-5.129-5.129-5.129h-24.606c-2.833 0-5.129 2.296-5.129 5.129s2.296 5.129 5.129 5.129z" fill="#ffa8cf"/><path d="m298.616 369.406h140.031c2.833 0 5.129-2.296 5.129-5.129 0-2.832-2.296-5.129-5.129-5.129h-140.031c-2.833 0-5.129 2.296-5.129 5.129 0 2.832 2.296 5.129 5.129 5.129z" fill="#b7c5ff"/><path d="m298.616 390.569h140.031c2.833 0 5.129-2.296 5.129-5.129s-2.296-5.129-5.129-5.129h-140.031c-2.833 0-5.129 2.296-5.129 5.129s2.296 5.129 5.129 5.129z" fill="#b7c5ff"/><g fill="#2626bc"><path d="m74.808 140.273c2.762 0 5-2.238 5-5v-.146c0-2.762-2.238-5-5-5s-5 2.238-5 5v.146c0 2.762 2.238 5 5 5z"/><path d="m94.157 140.273c2.762 0 5-2.238 5-5v-.146c0-2.762-2.238-5-5-5s-5 2.238-5 5v.146c0 2.762 2.239 5 5 5z"/><path d="m113.507 140.273c2.762 0 5-2.238 5-5v-.146c0-2.762-2.238-5-5-5s-5 2.238-5 5v.146c0 2.762 2.238 5 5 5z"/><path d="m459.267 106.083h-407.572c-11.039 0-20.02 8.98-20.02 20.02v254.575c0 11.039 8.98 20.02 20.02 20.02h140.405l-15.843 62.795h-15.355c-2.762 0-5 2.238-5 5s2.238 5 5 5h19.141c.037.001.074.007.11.007.028 0 .054-.006.082-.007l279.031-.071c11.611 0 21.058-9.446 21.058-21.058v-325.224c0-11.61-9.446-21.057-21.057-21.057zm-26.757 10-5.028 15.605c-.368 1.142-1.398 1.908-2.565 1.908h-112.57c-1.167 0-2.198-.768-2.566-1.908l-5.028-15.605h117.421zm-170.571 198.349c-33.227 0-60.258-27.35-60.258-60.966s27.031-60.965 60.258-60.965 60.258 27.349 60.258 60.965-27.031 60.966-60.258 60.966zm-210.244-198.349h208.415c-1.997 3.218-3.171 6.999-3.171 11.057v55.561c-36.413 2.601-65.258 33.335-65.258 70.765 0 37.431 28.844 68.165 65.258 70.766v16.011h-215.263v-175.926h192.688c2.762 0 5-2.238 5-5s-2.238-5-5-5h-192.688v-28.214c0-5.524 4.495-10.02 10.019-10.02zm150.717 284.615h54.527v51.666c0 4.088 1.19 7.895 3.214 11.129h-73.584zm267.912 51.667c0 6.098-4.96 11.058-11.058 11.058h-181.27c-6.097 0-11.057-4.96-11.057-11.058v-79.548c0-2.762-2.238-5-5-5s-5 2.238-5 5v17.882h-205.244c-5.524 0-10.02-4.495-10.02-10.02v-30.435h220.264c2.762 0 5-2.238 5-5v-21.011c36.413-2.601 65.258-33.335 65.258-70.766 0-37.43-28.844-68.164-65.258-70.765v-55.562c0-6.097 4.96-11.057 11.057-11.057h16.251l6.016 18.673c1.705 5.288 6.561 8.841 12.084 8.841h112.57c5.524 0 10.38-3.554 12.083-8.842l6.016-18.672h16.251c6.098 0 11.058 4.96 11.058 11.057v325.224h-.001z"/><path d="m372.167 419.954c-1.951-1.953-5.117-1.952-7.07-.001l-5.841 5.84c-1.953 1.953-1.953 5.118-.001 7.071.977.977 2.257 1.465 3.536 1.465s2.559-.488 3.535-1.464l2.306-2.306 2.305 2.305c1.951 1.953 5.119 1.953 7.07 0 1.953-1.952 1.953-5.118 0-7.07z"/></g><g fill="#6583fe"><circle cx="117.092" cy="208.836" r="5.597"/><path d="m134.023 203.239c3.091 0 5.597 2.506 5.597 5.597s-2.506 5.597-5.597 5.597-5.597-2.506-5.597-5.597 2.506-5.597 5.597-5.597z"/><circle cx="150.954" cy="208.836" r="5.597"/><path d="m361.046 203.239c3.091 0 5.597 2.506 5.597 5.597s-2.506 5.597-5.597 5.597-5.597-2.506-5.597-5.597 2.506-5.597 5.597-5.597z"/><circle cx="377.977" cy="208.836" r="5.597"/><circle cx="394.908" cy="208.836" r="5.597"/><path d="m97.656 470.874c-2.762 0-5-2.238-5-5 0-3.32-2.702-6.022-6.022-6.022-2.762 0-5-2.238-5-5s2.238-5 5-5c3.32 0 6.022-2.702 6.022-6.022 0-2.762 2.238-5 5-5s5 2.238 5 5c0 3.32 2.702 6.022 6.022 6.022 2.762 0 5 2.238 5 5s-2.238 5-5 5c-3.32 0-6.022 2.702-6.022 6.022 0 2.761-2.238 5-5 5z"/><path d="m355.449 95.339c-2.762 0-5-2.238-5-5 0-3.32-2.702-6.021-6.022-6.021-2.762 0-5-2.238-5-5s2.238-5 5-5c3.32 0 6.022-2.702 6.022-6.022 0-2.762 2.238-5 5-5s5 2.238 5 5c0 3.32 2.701 6.022 6.021 6.022 2.762 0 5 2.238 5 5s-2.238 5-5 5c-3.32 0-6.021 2.701-6.021 6.021 0 2.762-2.238 5-5 5z"/></g><path d="m146.948 448.355c-2.762 0-5-2.238-5-5 0-3.32-2.702-6.022-6.022-6.022-2.762 0-5-2.238-5-5s2.238-5 5-5c3.32 0 6.022-2.702 6.022-6.022 0-2.762 2.238-5 5-5s5 2.238 5 5c0 3.32 2.701 6.022 6.021 6.022 2.762 0 5 2.238 5 5s-2.238 5-5 5c-3.32 0-6.021 2.702-6.021 6.022 0 2.762-2.238 5-5 5z" fill="#ff7eb8"/><path d="m403.943 70.513c-1.326 0-2.598-.526-3.536-1.465l-11.007-11.007c-1.952-1.952-1.952-5.118.001-7.07l11.007-11.007c1.951-1.953 5.119-1.953 7.07 0l11.007 11.007c1.953 1.952 1.953 5.118.001 7.07l-11.007 11.008c-.938.938-2.209 1.464-3.536 1.464zm-3.935-16.008 3.936 3.937 3.936-3.937-3.936-3.936z" fill="#97ffd2"/></g></svg>