<svg id="Capa_1" enable-background="new 0 0 512 512" height="512" viewBox="0 0 512 512" width="512" xmlns="http://www.w3.org/2000/svg" xmlns:xlink="http://www.w3.org/1999/xlink"><linearGradient id="SVGID_1_" gradientUnits="userSpaceOnUse" x1="29.869" x2="498.5" y1="109.435" y2="443.12"><stop offset=".0485" stop-color="#d2deff"/><stop offset=".9993" stop-color="#dcfdee"/></linearGradient><g><path d="m408.229 154.262c-23.697-9.236-43.717-26.089-55.961-48.381-20.59-37.487-60.43-62.898-106.221-62.898-47.53 0-88.646 27.377-108.477 67.219-12.146 24.401-32.814 43.56-58.09 53.761-37.349 15.074-68.703 49.524-78.653 103.382-1.092 5.91-1.108 11.986-.016 17.896 15.448 83.572 82.399 120.435 143.334 110.66 34.126-5.474 68.672 5.909 93.967 29.462 51.434 47.892 133.884 62.907 213.923 11.57 9.377-6.014 21.957-18.634 27.966-28.015 68.966-107.67 17.879-219.714-71.772-254.656z" fill="url(#SVGID_1_)"/><path d="m456.001 100.581v254.25c0 8.28-6.72 15-15 15h-370c-8.28 0-15-6.72-15-15v-254.25c0-8.28 6.72-15 15-15h369.999c8.281 0 15.001 6.72 15.001 15z" fill="#2626bc" opacity=".1"/><path d="m312.711 463.509h-113.421l14.782-58.603 7.9-31.302h68.057l7.9 31.302z" fill="#9fb0fe"/><path d="m297.929 404.906h-83.857l7.9-31.302h68.057z" fill="#8399fe"/><path d="m456.001 121.552v254.25c0 8.28-6.72 15-15 15h-370c-8.28 0-15-6.72-15-15v-254.25c0-8.28 6.72-15 15-15h369.999c8.281 0 15.001 6.72 15.001 15z" fill="#fff"/><path d="m456.001 260.612v115.19c0 8.284-6.716 15-15 15h-164.78v-127.19c0-1.657 1.343-3 3-3z" fill="#dcfdee"/><path d="m456.001 154.726v-33.171c0-8.284-6.716-15-15-15h-370c-8.284 0-15 6.716-15 15v33.171z" fill="#6583fe"/><path d="m56.001 340.412v35.39c0 8.284 6.716 15 15 15h369.999c8.284 0 15-6.716 15-15v-35.39z" fill="#b7c5ff"/><g fill="#2626bc"><path d="m94.083 135.713c2.761 0 5-2.239 5-5v-.145c0-2.761-2.239-5-5-5s-5 2.239-5 5v.145c0 2.761 2.239 5 5 5z"/><path d="m113.408 135.713c2.761 0 5-2.239 5-5v-.145c0-2.761-2.239-5-5-5s-5 2.239-5 5v.145c0 2.761 2.239 5 5 5z"/><path d="m132.732 135.713c2.761 0 5-2.239 5-5v-.145c0-2.761-2.239-5-5-5s-5 2.239-5 5v.145c0 2.761 2.239 5 5 5z"/><path d="m61.001 159.726h394.999c2.761 0 5-2.239 5-5v-33.171c0-11.028-8.972-20-20-20h-369.999c-11.028 0-20 8.972-20 20v254.247c0 11.028 8.972 20 20 20h219.474l15.822 62.701h-100.592l10.406-41.239c.675-2.677-.947-5.396-3.625-6.071-2.676-.677-5.396.947-6.071 3.625l-11.023 43.685h-15.325c-2.761 0-5 2.239-5 5s2.239 5 5 5h19.22 113.429 19.22c2.761 0 5-2.239 5-5s-2.239-5-5-5h-15.325l-15.822-62.701h140.212c11.028 0 20-8.972 20-20v-193.535c0-2.761-2.239-5-5-5s-5 2.239-5 5v153.146h-390zm10-48.171h369.999c5.514 0 10 4.486 10 10v28.171h-389.999v-28.171c0-5.514 4.486-10 10-10zm380 233.857v30.39c0 5.514-4.486 10-10 10h-370c-5.514 0-10-4.486-10-10v-30.39z"/></g><path d="m235.833 312.654h-136.742c-2.766 0-5.008-2.242-5.008-5.008s2.242-5.008 5.008-5.008h136.742c2.766 0 5.008 2.242 5.008 5.008.001 2.766-2.241 5.008-5.008 5.008z" fill="#b7c5ff"/><path d="m235.833 293.554h-136.742c-2.766 0-5.008-2.242-5.008-5.008s2.242-5.008 5.008-5.008h136.742c2.766 0 5.008 2.242 5.008 5.008.001 2.766-2.241 5.008-5.008 5.008z" fill="#b7c5ff"/><path d="m121.833 274.454h-22.742c-2.766 0-5.008-2.242-5.008-5.008s2.242-5.008 5.008-5.008h22.742c2.766 0 5.008 2.242 5.008 5.008s-2.241 5.008-5.008 5.008z" fill="#6583fe"/><path d="m235.833 274.454h-91.742c-2.766 0-5.008-2.242-5.008-5.008s2.242-5.008 5.008-5.008h91.742c2.766 0 5.008 2.242 5.008 5.008s-2.241 5.008-5.008 5.008z" fill="#9fb0fe"/><path d="m145.833 241.489h-46.742c-2.766 0-5.008-2.242-5.008-5.008s2.242-5.008 5.008-5.008h46.742c2.766 0 5.008 2.242 5.008 5.008.001 2.765-2.241 5.008-5.008 5.008z" fill="#b7c5ff"/><path d="m316.929 312.046h-16c-1.657 0-3-1.343-3-3v-60.866c0-1.657 1.343-3 3-3h16c1.657 0 3 1.343 3 3v60.866c0 1.657-1.343 3-3 3z" fill="#02ffb3"/><path d="m284.216 312.046h-16c-1.657 0-3-1.343-3-3v-37.657c0-1.657 1.343-3 3-3h16c1.657 0 3 1.343 3 3v37.657c0 1.657-1.343 3-3 3z" fill="#97ffd2"/><path d="m349.641 312.046h-16c-1.657 0-3-1.343-3-3v-78.34c0-1.657 1.343-3 3-3h16c1.657 0 3 1.343 3 3v78.34c0 1.657-1.343 3-3 3z" fill="#ffa8cf"/><path d="m382.354 312.046h-16c-1.657 0-3-1.343-3-3v-96.866c0-1.657 1.343-3 3-3h16c1.657 0 3 1.343 3 3v96.866c0 1.657-1.343 3-3 3z" fill="#ff7eb8"/><path d="m415.067 312.046h-16c-1.657 0-3-1.343-3-3v-114.34c0-1.657 1.343-3 3-3h16c1.657 0 3 1.343 3 3v114.34c0 1.657-1.343 3-3 3z" fill="#ff5ba8"/><g fill="#6583fe"><path d="m117.684 213.479c-1.818 0-3.51-.992-4.391-2.61l-2.979-5.476-2.979 5.476c-.955 1.753-2.866 2.773-4.848 2.589-1.988-.182-3.677-1.529-4.297-3.427l-6.86-21.01c-.857-2.625.576-5.448 3.201-6.305 2.624-.857 5.447.576 6.305 3.201l3.26 9.983 1.828-3.358c.875-1.608 2.56-2.61 4.392-2.61s3.517 1.001 4.392 2.61l1.827 3.357 3.26-9.983c.857-2.625 3.68-4.06 6.305-3.201 2.625.857 4.059 3.68 3.201 6.305l-6.86 21.01c-.62 1.898-2.309 3.245-4.297 3.427-.156.015-.309.022-.46.022z"/><path d="m160.485 213.479c-1.818 0-3.51-.992-4.39-2.61l-2.98-5.476-2.98 5.476c-.954 1.753-2.861 2.773-4.848 2.589-1.988-.182-3.677-1.529-4.297-3.427l-6.86-21.01c-.857-2.625.576-5.448 3.201-6.305s5.448.576 6.305 3.201l3.26 9.983 1.828-3.358c.875-1.608 2.56-2.61 4.392-2.61s3.517 1.001 4.392 2.61l1.827 3.357 3.26-9.983c.857-2.625 3.68-4.06 6.305-3.201 2.625.857 4.059 3.68 3.201 6.305l-6.86 21.01c-.62 1.898-2.309 3.245-4.297 3.427-.154.015-.307.022-.459.022z"/><path d="m203.286 213.479c-1.818 0-3.51-.992-4.391-2.61l-2.979-5.476-2.979 5.476c-.955 1.753-2.863 2.773-4.848 2.589-1.988-.182-3.677-1.529-4.297-3.427l-6.86-21.01c-.857-2.625.576-5.448 3.201-6.305s5.448.576 6.305 3.201l3.26 9.983 1.828-3.358c.875-1.608 2.56-2.61 4.392-2.61s3.517 1.001 4.392 2.61l1.827 3.357 3.26-9.983c.857-2.625 3.68-4.06 6.305-3.201 2.625.857 4.059 3.68 3.201 6.305l-6.86 21.01c-.62 1.898-2.309 3.245-4.297 3.427-.155.015-.308.022-.46.022z"/></g><path d="m318.841 182.704c3.087 0 5.59 2.503 5.59 5.59s-2.503 5.59-5.59 5.59-5.59-2.503-5.59-5.59 2.502-5.59 5.59-5.59z" fill="#ff5ba8"/><path d="m335.751 182.704c3.087 0 5.59 2.503 5.59 5.59s-2.503 5.59-5.59 5.59-5.59-2.503-5.59-5.59 2.502-5.59 5.59-5.59z" fill="#ff5ba8"/><path d="m352.661 182.704c3.087 0 5.59 2.503 5.59 5.59s-2.503 5.59-5.59 5.59-5.59-2.503-5.59-5.59 2.502-5.59 5.59-5.59z" fill="#ff5ba8"/><path d="m293.15 199.082c0-9.161-7.453-16.613-16.613-16.613s-16.613 7.453-16.613 16.613c0 4.518 1.818 8.615 4.755 11.613-2.936 2.998-4.755 7.095-4.755 11.613 0 2.761 2.239 5 5 5s5-2.239 5-5c0-3.646 2.967-6.613 6.613-6.613s6.613 2.967 6.613 6.613c0 2.761 2.239 5 5 5s5-2.239 5-5c0-4.518-1.818-8.615-4.755-11.613 2.937-2.998 4.755-7.096 4.755-11.613zm-16.613-6.614c3.646 0 6.613 2.967 6.613 6.613s-2.967 6.613-6.613 6.613-6.613-2.967-6.613-6.613 2.966-6.613 6.613-6.613z" fill="#4369fd"/><path d="m134.065 449.332c-1.28 0-2.559-.488-3.536-1.464l-11.018-11.018c-.938-.938-1.464-2.209-1.464-3.536s.527-2.598 1.464-3.536l11.018-11.018c1.953-1.952 5.118-1.952 7.071 0l11.018 11.018c.938.938 1.464 2.209 1.464 3.536s-.527 2.598-1.464 3.536l-11.017 11.017c-.977.976-2.256 1.465-3.536 1.465zm-3.947-16.019 3.947 3.947 3.947-3.947-3.947-3.947z" fill="#97ffd2"/><path d="m366.111 437.118c-1.28 0-2.559-.488-3.536-1.464l-11.018-11.018c-.938-.938-1.464-2.209-1.464-3.536s.527-2.598 1.464-3.536l11.018-11.018c1.953-1.952 5.118-1.952 7.071 0l11.018 11.018c.938.938 1.464 2.209 1.464 3.536s-.527 2.598-1.464 3.536l-11.018 11.018c-.976.975-2.255 1.464-3.535 1.464zm-3.947-16.018 3.947 3.947 3.947-3.947-3.947-3.947z" fill="#ff7eb8"/><path d="m429.983 464.332c-1.28 0-2.559-.488-3.536-1.464l-11.018-11.018c-.938-.938-1.464-2.209-1.464-3.536s.527-2.598 1.464-3.536l11.018-11.018c1.953-1.952 5.118-1.952 7.071 0l11.018 11.018c.938.938 1.464 2.209 1.464 3.536s-.527 2.598-1.464 3.536l-11.018 11.018c-.976.975-2.255 1.464-3.535 1.464zm-3.947-16.019 3.947 3.947 3.947-3.947-3.947-3.947z" fill="#6583fe"/><path d="m202.426 75.527c-2.761 0-5-2.239-5-5 0-3.318-2.7-6.018-6.018-6.018-2.761 0-5-2.239-5-5s2.239-5 5-5c3.318 0 6.018-2.7 6.018-6.018 0-2.761 2.239-5 5-5s5 2.239 5 5c0 3.318 2.7 6.018 6.018 6.018 2.761 0 5 2.239 5 5s-2.239 5-5 5c-3.318 0-6.018 2.7-6.018 6.018 0 2.762-2.239 5-5 5z" fill="#6583fe"/></g></svg>