<svg id="Capa_1" enable-background="new 0 0 512 512" height="512" viewBox="0 0 512 512" width="512" xmlns="http://www.w3.org/2000/svg" xmlns:xlink="http://www.w3.org/1999/xlink"><linearGradient id="SVGID_1_" gradientUnits="userSpaceOnUse" x1="23.821" x2="459.531" y1="344.999" y2="93.441"><stop offset="0" stop-color="#dcfdee" stop-opacity="0"/><stop offset=".6288" stop-color="#d2f3e4"/></linearGradient><g><g><path d="m16.074 304.61c18.727 64.003 72.707 194.564 163.922 182.845 91.486-11.755 55.759-129.725 139.508-145.894 36.867-7.118 61.857 56.689 98.806 54.704 47.588-2.557 71.81-49.663 85.108-89.264 28.197-83.968-14.029-226.352-112.858-251.011-86.244-21.519-96.332 83.855-171.322 53.248-42.149-17.203-37.938-68.576-89.272-78.942-155.299-31.36-138.811 189.15-113.892 274.314z" fill="url(#SVGID_1_)"/></g><g><g><g><g><g><path d="m455.47 453.863h-398.94c-8.284 0-15-6.716-15-15v-314.266c0-8.284 6.716-15 15-15h398.94c8.284 0 15 6.716 15 15v314.266c0 8.284-6.715 15-15 15z" fill="#2626bc" opacity=".1"/><path d="m470.47 100.6v314.26c0 8.29-6.72 15-15 15h-398.94c-8.28 0-15-6.71-15-15v-314.26c0-8.29 6.72-15 15-15h398.94c8.28 0 15 6.71 15 15z" fill="#fff"/><path d="m470.47 204.33v210.53c0 8.29-6.72 15-15 15h-376.33c16.25-26.78 50.57-64.05 115.32-62.96 100.8 1.69 55.75-134.02 145.85-124.45 86.97 9.25 71.09-54.45 130.16-38.12z" fill="#8399fe"/><path d="m407.53 264.86c0 25.99-21.07 47.05-47.06 47.05s-47.06-21.06-47.06-47.05c0-7.77 1.89-15.11 5.23-21.57 6.23-1.37 13.38-1.72 21.67-.84 26.79 2.85 43.82-1.22 56.29-7.75 6.82 8.17 10.93 18.69 10.93 30.16z" fill="#6583fe"/><g fill="#d2deff"><path d="m175.51 429.863h-96.638v-86.506c0-2.761 2.239-5 5-5h86.638c2.761 0 5 2.239 5 5z"/><path d="m304.319 429.863h-96.638v-86.506c0-2.761 2.239-5 5-5h86.638c2.761 0 5 2.239 5 5z"/><path d="m433.128 429.863h-96.638v-86.506c0-2.761 2.239-5 5-5h86.638c2.761 0 5 2.239 5 5z"/></g><path d="m470.47 154.91v-54.313c0-8.284-6.716-15-15-15h-398.94c-8.284 0-15 6.716-15 15v54.313z" fill="#01eca5"/><path d="m455.47 434.863h-398.94c-11.028 0-20-8.972-20-20v-314.266c0-11.028 8.972-20 20-20h398.94c11.028 0 20 8.972 20 20v314.266c0 11.028-8.972 20-20 20zm-398.94-344.266c-5.514 0-10 4.486-10 10v314.266c0 5.514 4.486 10 10 10h398.94c5.514 0 10-4.486 10-10v-314.266c0-5.514-4.486-10-10-10z" fill="#2626bc"/></g><g><g><circle cx="85.623" cy="122.498" fill="#ff5ba8" r="10.901"/><circle cx="120.424" cy="122.498" fill="#fff" r="10.901"/><circle cx="155.224" cy="122.498" fill="#97ffd2" r="10.901"/></g><path d="m432.277 134.745h-136.158v-24.495h136.159c2.761 0 5 2.239 5 5v14.496c-.001 2.761-2.239 4.999-5.001 4.999z" fill="#dcfdee"/><path d="m296.789 110.561c-5.286-5.286-13.887-5.286-19.173 0s-5.286 13.887 0 19.173c4.037 4.037 10.003 4.98 14.953 2.852l4.348 4.348c1.952 1.952 5.119 1.952 7.071 0s1.952-5.119 0-7.071l-4.348-4.348c2.129-4.951 1.186-10.917-2.851-14.954zm-12.102 7.071c1.387-1.387 3.644-1.387 5.031 0s1.387 3.644 0 5.031-3.644 1.387-5.031 0-1.387-3.644 0-5.031z" fill="#fff"/></g></g></g><g><g><circle cx="127.191" cy="369.848" fill="#fff" r="11.262"/><g><path d="m146.531 395.126h-38.681c-2.761 0-5 2.239-5 5s2.239 5 5 5h38.681c2.761 0 5-2.239 5-5s-2.238-5-5-5z" fill="#8399fe"/></g></g><g><circle cx="256" cy="369.848" fill="#fff" r="11.262"/><g><path d="m275.34 395.126h-38.68c-2.761 0-5 2.239-5 5s2.239 5 5 5h38.681c2.761 0 5-2.239 5-5s-2.239-5-5.001-5z" fill="#8399fe"/></g></g><g><circle cx="384.809" cy="369.848" fill="#fff" r="11.262"/><g><path d="m404.149 395.126h-38.681c-2.761 0-5 2.239-5 5s2.239 5 5 5h38.681c2.761 0 5-2.239 5-5s-2.238-5-5-5z" fill="#8399fe"/></g></g></g><g><path d="m236.852 314.751h-137.111c-5.523 0-10-4.477-10-10v-5.81c0-5.523 4.477-10 10-10h137.11c5.523 0 10 4.477 10 10v5.81c.001 5.523-4.477 10-9.999 10z" fill="#ff7eb8"/><g><g><path d="m199.422 254.857h-104.681c-2.761 0-5 2.239-5 5s2.239 5 5 5h104.681c2.761 0 5-2.239 5-5s-2.239-5-5-5z" fill="#8399fe"/></g><g><path d="m175.422 235.43h-80.681c-2.761 0-5 2.239-5 5s2.239 5 5 5h80.681c2.761 0 5-2.239 5-5s-2.239-5-5-5z" fill="#8399fe"/></g><g><path d="m106.422 212.084h-11.681c-2.761 0-5 2.239-5 5s2.239 5 5 5h11.681c2.761 0 5-2.239 5-5s-2.239-5-5-5z" fill="#ff7eb8"/></g><g><path d="m166.422 178.001h-71.681c-2.761 0-5 2.239-5 5s2.239 5 5 5h71.681c2.761 0 5-2.239 5-5s-2.239-5-5-5z" fill="#02ffb3"/></g></g></g><circle cx="360.469" cy="246.57" fill="#02ffb3" r="47.058"/><g fill="#fff"><circle cx="373.702" cy="276.632" r="5.002"/><circle cx="396.79" cy="276.632" r="5.002"/><circle cx="419.877" cy="276.632" r="5.002"/><circle cx="385.246" cy="258.049" r="5.002"/><circle cx="408.334" cy="258.049" r="5.002"/><circle cx="385.246" cy="295.215" r="5.002"/><circle cx="408.334" cy="295.215" r="5.002"/></g></g><path d="m448.525 59.892c-7.88 0-14.292-6.411-14.292-14.292 0-7.88 6.411-14.291 14.292-14.291s14.292 6.411 14.292 14.291c-.001 7.881-6.412 14.292-14.292 14.292zm0-18.583c-2.366 0-4.292 1.925-4.292 4.291s1.925 4.292 4.292 4.292 4.292-1.926 4.292-4.292-1.926-4.291-4.292-4.291z" fill="#ff5ba8"/><path d="m100.582 491.734c-7.88 0-14.292-6.411-14.292-14.291 0-7.881 6.411-14.292 14.292-14.292s14.292 6.411 14.292 14.292c-.001 7.88-6.412 14.291-14.292 14.291zm0-18.583c-2.366 0-4.292 1.926-4.292 4.292s1.925 4.291 4.292 4.291 4.292-1.925 4.292-4.291-1.926-4.292-4.292-4.292z" fill="#6583fe"/><path d="m149.81 491.734c-7.88 0-14.292-6.411-14.292-14.291 0-7.881 6.411-14.292 14.292-14.292s14.292 6.411 14.292 14.292c0 7.88-6.412 14.291-14.292 14.291zm0-18.583c-2.366 0-4.292 1.926-4.292 4.292s1.925 4.291 4.292 4.291 4.292-1.925 4.292-4.291-1.926-4.292-4.292-4.292z" fill="#01eca5"/><path d="m242.387 52.266c-2.761 0-5-2.238-5-5 0-3.309-2.691-6-6-6-2.761 0-5-2.238-5-5s2.239-5 5-5c3.309 0 6-2.691 6-6 0-2.762 2.239-5 5-5s5 2.238 5 5c0 3.309 2.691 6 6 6 2.761 0 5 2.238 5 5s-2.239 5-5 5c-3.309 0-6 2.691-6 6 0 2.762-2.239 5-5 5z" fill="#01eca5"/><path d="m288.34 64.557c-2.761 0-5-2.238-5-5 0-3.309-2.691-6-6-6-2.761 0-5-2.238-5-5s2.239-5 5-5c3.309 0 6-2.691 6-6 0-2.762 2.239-5 5-5s5 2.238 5 5c0 3.309 2.691 6 6 6 2.761 0 5 2.238 5 5s-2.239 5-5 5c-3.309 0-6 2.691-6 6 0 2.762-2.239 5-5 5z" fill="#ff5ba8"/></g></g></svg>