<svg id="Capa_1" enable-background="new 0 0 512 512" height="512" viewBox="0 0 512 512" width="512" xmlns="http://www.w3.org/2000/svg" xmlns:xlink="http://www.w3.org/1999/xlink"><linearGradient id="SVGID_1_" gradientUnits="userSpaceOnUse" x1="46.861" x2="522.851" y1="155.563" y2="369.022"><stop offset="0" stop-color="#ffdbed"/><stop offset="1" stop-color="#dcfdee"/></linearGradient><g><path d="m408.228 151.764c-23.697-9.236-43.717-26.089-55.961-48.381-20.59-37.487-60.43-62.898-106.221-62.898-47.53 0-88.646 27.377-108.477 67.219-12.146 24.401-32.814 43.56-58.09 53.761-37.348 15.075-68.702 49.524-78.652 103.383-1.092 5.91-1.108 11.986-.016 17.896 15.448 83.572 82.399 120.435 143.334 110.66 34.126-5.474 68.672 5.909 93.967 29.462 51.434 47.892 133.884 62.907 213.923 11.57 9.377-6.014 21.957-18.634 27.966-28.015 68.966-107.67 17.878-219.715-71.773-254.657z" fill="url(#SVGID_1_)"/><path d="m395.103 31.502h-219.823c-8.273 0-14.988 6.715-14.988 14.988v34.08h-41.904c-8.273 0-14.988 6.715-14.988 14.988v343.973c0 8.273 6.715 14.988 14.988 14.988h219.823c8.273 0 14.988-6.715 14.988-14.988v-34.08h41.904c8.273 0 14.988-6.715 14.988-14.988v-343.973c0-8.273-6.714-14.988-14.988-14.988z" fill="#2626bc" opacity=".1"/><path d="m353.2 116.542v343.97c0 8.28-6.72 14.99-14.99 14.99h-219.82c-8.27 0-14.99-6.71-14.99-14.99v-343.97c0-8.27 6.72-14.99 14.99-14.99h219.82c8.27 0 14.99 6.72 14.99 14.99z" fill="#d2deff"/><path d="m191.24 378.292v72.472c0 4.15-3.37 7.51-7.52 7.51h-80.32v-87.502h80.32c4.15 0 7.52 3.37 7.52 7.52z" fill="#9fb0fe"/><path d="m328.749 301.088v-123.9c0-1.656-1.342-2.998-2.998-2.998h-194.902c-1.656 0-2.998 1.342-2.998 2.998v123.9c0 1.656 1.342 2.998 2.998 2.998h194.903c1.655 0 2.997-1.342 2.997-2.998z" fill="#9fb0fe"/><path d="m353.199 255.61v187.419h-177.916c-8.273 0-14.988-6.715-14.988-14.988v-172.431z" fill="#9fb0fe"/><path d="m353.202 149.684v-33.144c0-8.278-6.71-14.988-14.988-14.988h-219.823c-8.278 0-14.988 6.71-14.988 14.988v33.145z" fill="#4369fd"/><path d="m410.091 67.473v343.973c0 8.273-6.715 14.988-14.988 14.988h-219.823c-8.273 0-14.988-6.715-14.988-14.988v-343.973c0-8.273 6.715-14.988 14.988-14.988h219.823c8.274.001 14.988 6.715 14.988 14.988z" fill="#9fb0fe"/><path d="m160.292 387.755v23.691c0 8.273 6.715 14.988 14.988 14.988h219.823c8.273 0 14.988-6.714 14.988-14.988v-23.691z" fill="#b7c5ff"/><path d="m214.831 52.486h-39.551c-8.273 0-14.988 6.714-14.988 14.988v343.973c0 8.273 6.715 14.988 14.988 14.988h39.551z" fill="#fff"/><path d="m410.091 100.618v-33.145c0-8.278-6.71-14.988-14.988-14.988h-219.823c-8.278 0-14.988 6.71-14.988 14.988v33.145z" fill="#ff7eb8"/><path d="m67.887 138.129c-2.761 0-5-2.239-5-5 0-3.313-2.696-6.009-6.009-6.009-2.761 0-5-2.239-5-5s2.239-5 5-5c3.313 0 6.009-2.695 6.009-6.009 0-2.761 2.239-5 5-5s5 2.239 5 5c0 3.313 2.695 6.009 6.009 6.009 2.761 0 5 2.239 5 5s-2.239 5-5 5c-3.313 0-6.009 2.696-6.009 6.009 0 2.762-2.239 5-5 5z" fill="#6583fe"/><path d="m399.153 479.536c-1.28 0-2.559-.488-3.536-1.464l-11.016-11.016c-1.953-1.953-1.953-5.119 0-7.071l11.016-11.016c1.953-1.952 5.118-1.952 7.071 0l11.016 11.016c1.953 1.953 1.953 5.119 0 7.071l-11.016 11.016c-.976.975-2.255 1.464-3.535 1.464zm-3.944-16.016 3.944 3.944 3.944-3.944-3.944-3.944z" fill="#ff7eb8"/><path d="m114.339 68.381c-2.761 0-5-2.239-5-5 0-3.317-2.699-6.016-6.016-6.016-2.761 0-5-2.239-5-5s2.239-5 5-5c3.317 0 6.016-2.699 6.016-6.016 0-2.761 2.239-5 5-5s5 2.239 5 5c0 3.317 2.699 6.016 6.016 6.016 2.761 0 5 2.239 5 5s-2.239 5-5 5c-3.317 0-6.016 2.699-6.016 6.016 0 2.761-2.239 5-5 5z" fill="#97ffd2"/><path d="m444.106 138.057c-2.761 0-5-2.239-5-5 0-3.317-2.699-6.016-6.016-6.016-2.761 0-5-2.239-5-5s2.239-5 5-5c3.317 0 6.016-2.699 6.016-6.016 0-2.761 2.239-5 5-5s5 2.239 5 5c0 3.317 2.699 6.016 6.016 6.016 2.761 0 5 2.239 5 5s-2.239 5-5 5c-3.317 0-6.016 2.699-6.016 6.016 0 2.761-2.238 5-5 5z" fill="#6583fe"/><path d="m290.146 213.158h-15.731c-2.615 0-4.95 1.912-5.199 4.515-.285 2.986 2.055 5.499 4.984 5.499h15.946c2.765 0 5.007-2.242 5.007-5.007s-2.241-5.007-5.007-5.007z" fill="#d2deff"/><path d="m350.57 213.158h-37.41c-2.765 0-5.007 2.242-5.007 5.007s2.242 5.007 5.007 5.007h37.625c2.928 0 5.269-2.513 4.984-5.499-.248-2.603-2.584-4.515-5.199-4.515z" fill="#97ffd2"/><path d="m326.146 234.123h-51.731c-2.615 0-4.95 1.912-5.199 4.515-.285 2.986 2.055 5.5 4.984 5.5h51.946c2.765 0 5.007-2.242 5.007-5.007 0-2.767-2.241-5.008-5.007-5.008z" fill="#d2deff"/><path d="m380.57 234.123h-31.41c-2.765 0-5.007 2.242-5.007 5.007s2.242 5.007 5.007 5.007h31.625c2.928 0 5.269-2.513 4.984-5.5-.248-2.603-2.584-4.514-5.199-4.514z" fill="#97ffd2"/><path d="m311.146 255.087h-36.731c-2.615 0-4.95 1.912-5.199 4.515-.285 2.986 2.055 5.5 4.984 5.5h36.946c2.765 0 5.007-2.242 5.007-5.007 0-2.767-2.241-5.008-5.007-5.008z" fill="#d2deff"/><path d="m350.57 255.087h-16.41c-2.765 0-5.007 2.242-5.007 5.007s2.242 5.007 5.007 5.007h16.625c2.928 0 5.269-2.513 4.984-5.5-.248-2.603-2.584-4.514-5.199-4.514z" fill="#97ffd2"/><path d="m380.571 276.051h-61.41c-2.765 0-5.007 2.242-5.007 5.007s2.242 5.007 5.007 5.007h61.625c2.928 0 5.269-2.513 4.984-5.499-.249-2.603-2.584-4.515-5.199-4.515z" fill="#97ffd2"/><path d="m296.146 276.051h-21.731c-2.615 0-4.95 1.912-5.199 4.515-.285 2.986 2.056 5.499 4.984 5.499h21.946c2.765 0 5.007-2.242 5.007-5.007s-2.241-5.007-5.007-5.007z" fill="#d2deff"/><g fill="#fff"><path d="m261.146 178.307h-16.731c-2.615 0-4.95 1.912-5.199 4.515-.285 2.986 2.055 5.499 4.984 5.499h16.946c2.765 0 5.007-2.242 5.007-5.007s-2.241-5.007-5.007-5.007z"/><path d="m350.571 178.307h-65.077c-2.765 0-5.007 2.242-5.007 5.007s2.242 5.007 5.007 5.007h65.292c2.928 0 5.269-2.513 4.984-5.499-.249-2.603-2.584-4.515-5.199-4.515z"/><path d="m261.146 313.872h-16.731c-2.615 0-4.95 1.912-5.199 4.515-.285 2.986 2.055 5.499 4.984 5.499h16.946c2.765 0 5.007-2.242 5.007-5.007 0-2.766-2.241-5.007-5.007-5.007z"/><path d="m350.571 313.872h-65.077c-2.765 0-5.007 2.242-5.007 5.007s2.242 5.007 5.007 5.007h65.292c2.928 0 5.269-2.513 4.984-5.499-.249-2.604-2.584-4.515-5.199-4.515z"/></g><path d="m183.721 445.082h-108.316c-4.152 0-7.518-3.366-7.518-7.518v-70.507c0-4.152 3.366-7.518 7.518-7.518h108.316c4.152 0 7.518 3.366 7.518 7.518v70.507c.001 4.152-3.365 7.518-7.518 7.518z" fill="#ff7eb8"/><g fill="#2626bc"><path d="m136.455 125.545v.145c0 2.761 2.239 5 5 5s5-2.239 5-5v-.145c0-2.761-2.239-5-5-5s-5 2.239-5 5z"/><path d="m198.344 71.479c-2.761 0-5 2.239-5 5v.145c0 2.761 2.239 5 5 5s5-2.239 5-5v-.145c0-2.761-2.239-5-5-5z"/><path d="m217.653 71.479c-2.761 0-5 2.239-5 5v.145c0 2.761 2.239 5 5 5s5-2.239 5-5v-.145c0-2.761-2.239-5-5-5z"/><path d="m236.962 71.479c-2.761 0-5 2.239-5 5v.145c0 2.761 2.239 5 5 5s5-2.239 5-5v-.145c0-2.761-2.238-5-5-5z"/><path d="m395.103 47.486h-219.822c-11.021 0-19.988 8.966-19.988 19.988v29.078h-36.901c-11.021 0-19.988 8.966-19.988 19.988v237.999h-22.999c-6.902 0-12.518 5.616-12.518 12.518v70.507c0 6.903 5.616 12.519 12.518 12.519h22.998v10.427c0 11.021 8.966 19.988 19.988 19.988h219.823c11.021 0 19.988-8.966 19.988-19.988v-34.079c0-2.761-2.239-5-5-5h-.001-.001-156.96v-54.375c0-6.902-5.616-12.518-12.518-12.518h-18.429v-204.853c0-2.761-2.239-5-5-5h-51.889v-28.145c0-5.507 4.48-9.988 9.988-9.988h36.901v15.608c0 2.761 2.239 5 5 5s5-2.239 5-5v-16.542h239.799v305.825c0 5.507-4.48 9.988-9.988 9.988h-14.38c-2.761 0-5 2.239-5 5s2.239 5 5 5h14.38c11.021 0 19.988-8.966 19.988-19.988v-343.969c-.001-11.022-8.967-19.988-19.989-19.988zm-46.901 383.945v29.079c0 5.507-4.481 9.988-9.988 9.988h-219.823c-5.507 0-9.988-4.48-9.988-9.988v-10.427h75.318c6.902 0 12.518-5.616 12.518-12.519v-6.133zm-161.962-64.374v70.507c0 1.389-1.129 2.519-2.518 2.519h-108.317c-1.389 0-2.518-1.13-2.518-2.519v-70.507c0-1.389 1.129-2.518 2.518-2.518h108.316c1.389 0 2.519 1.129 2.519 2.518zm-30.948-212.372v199.854h-46.889v-199.854zm10-59.067v-28.144c0-5.507 4.48-9.988 9.988-9.988h219.822c5.508 0 9.988 4.48 9.988 9.988v28.145z"/><path d="m195.534 183.169c0-2.761-2.239-5-5-5s-5 2.239-5 5v.146c0 2.761 2.239 5 5 5s5-2.239 5-5z"/><path d="m195.534 228.502c0-2.761-2.239-5-5-5s-5 2.239-5 5v.145c0 2.761 2.239 5 5 5s5-2.239 5-5z"/><path d="m195.534 273.836c0-2.761-2.239-5-5-5s-5 2.239-5 5v.145c0 2.761 2.239 5 5 5s5-2.239 5-5z"/><path d="m190.534 314.169c-2.761 0-5 2.239-5 5v.146c0 2.761 2.239 5 5 5s5-2.239 5-5v-.146c0-2.761-2.239-5-5-5z"/></g><path d="m106.192 419.339c-1.279 0-2.559-.488-3.534-1.464l-12.03-12.03c-1.952-1.952-1.952-5.117 0-7.068l12.03-12.03c1.95-1.951 5.117-1.951 7.067 0 1.952 1.952 1.952 5.117 0 7.068l-8.496 8.496 8.496 8.496c1.952 1.952 1.952 5.117 0 7.068-.974.976-2.254 1.464-3.533 1.464z" fill="#fff"/><path d="m152.935 385.282c1.279 0 2.559.488 3.534 1.464l12.03 12.03c1.952 1.952 1.952 5.117 0 7.068l-12.03 12.03c-1.95 1.951-5.117 1.951-7.067 0-1.952-1.952-1.952-5.117 0-7.068l8.496-8.496-8.496-8.496c-1.952-1.952-1.952-5.117 0-7.068.974-.976 2.254-1.464 3.533-1.464z" fill="#fff"/><path d="m122.765 419.34c-.833 0-1.676-.208-2.452-.647-2.404-1.357-3.253-4.406-1.895-6.81l13.586-24.061c1.357-2.403 4.406-3.252 6.809-1.895 2.404 1.357 3.253 4.406 1.895 6.81l-13.586 24.061c-.919 1.627-2.612 2.542-4.357 2.542z" fill="#fff"/></g></svg>