<svg width="20" height="20" viewBox="0 0 20 20" fill="none" xmlns="http://www.w3.org/2000/svg">
<path d="M10 0C4.47687 0 0 4.47687 0 10C0 15.5225 4.47687 20 10 20C15.5225 20 20 15.5225 20 10C20 4.47687 15.5225 0 10 0ZM10 18.75C5.175 18.75 1.25002 14.825 1.25002 10C1.25002 5.175 5.175 1.23064 10 1.23064C14.825 1.23064 18.75 5.175 18.75 10C18.75 14.825 14.825 18.75 10 18.75Z" fill="#6E62E4"/>
<path d="M8.62992 5.1694C8.38554 4.92315 7.98993 4.92315 7.74617 5.1694C7.50178 5.41628 7.50178 5.81563 7.74617 6.06251L11.6181 9.99061L7.74554 13.9187C7.50116 14.165 7.50116 14.5649 7.74554 14.8118C7.98993 15.0581 8.38554 15.0581 8.6293 14.8118L12.9418 10.4374C13.1793 10.1968 13.1799 9.78493 12.9418 9.54434L8.62992 5.1694Z" fill="#6E62E4"/>
</svg>
