<svg width="150" height="150" viewBox="0 0 150 150" fill="none" xmlns="http://www.w3.org/2000/svg">
<rect width="150" height="150" fill="url(#paint0_linear)"/>
<path fill-rule="evenodd" clip-rule="evenodd" d="M80.4398 74.2997C80.2255 84.2974 80.2213 84.2973 80.2172 84.2972L80.2096 84.297L80.1964 84.2967L80.1777 84.2962L80.1713 84.2961C80.1805 84.2964 80.2162 84.2977 80.2765 84.3008C80.3974 84.3069 80.6154 84.3199 80.9164 84.3454C81.5214 84.3965 82.4424 84.4964 83.5696 84.6866C85.8735 85.0755 88.7794 85.7991 91.5491 87.0861C94.312 88.3699 96.6041 90.0551 98.1871 92.2106C99.6773 94.2398 100.948 97.2273 100.906 101.977C100.864 106.765 99.5464 109.811 98.0066 111.891C96.3818 114.086 94.0734 115.779 91.3415 117.059C88.5995 118.343 85.739 119.063 83.4807 119.449C82.3753 119.638 81.4742 119.737 80.8845 119.787C80.5912 119.813 80.3796 119.825 80.2636 119.831L80.2499 119.832L61.9123 119.832L61.9059 116.135C61.8966 110.665 61.8856 103.847 61.8749 96.231L41.8789 99.0624C41.8883 105.552 41.8978 111.378 41.9059 116.169C41.9132 120.393 41.9194 123.813 41.9238 126.178L41.9291 128.902L41.9305 129.611L41.9308 129.791L41.9309 129.837L41.9309 129.848V129.851L41.931 129.852C41.931 129.852 41.931 129.852 51.9309 129.832L41.931 129.852L41.9511 139.832L51.9309 139.832L80.4398 139.832H80.5486L80.6573 139.83L80.4398 129.832C80.6573 139.83 80.6618 139.83 80.6665 139.829L80.6763 139.829L80.6981 139.829L80.7503 139.827L80.8244 139.825L80.8885 139.823C80.9953 139.819 81.1314 139.813 81.295 139.805C81.6219 139.788 82.06 139.76 82.5936 139.714C83.6578 139.623 85.1199 139.459 86.8519 139.163C90.2684 138.578 94.9794 137.44 99.8239 135.171C104.678 132.897 109.972 129.343 114.082 123.791C118.277 118.123 120.828 110.921 120.906 102.155C120.984 93.3509 118.507 86.0906 114.307 80.3722C110.2 74.78 104.861 71.2178 99.977 68.9486C95.1001 66.6825 90.3444 65.5473 86.8983 64.9656C85.1505 64.6706 83.6745 64.5072 82.6012 64.4165C82.063 64.371 81.6215 64.3434 81.2927 64.3266C81.1282 64.3183 80.9914 64.3126 80.8845 64.3088C80.831 64.3069 80.7849 64.3054 80.7464 64.3043L80.6945 64.3029L80.6728 64.3024L80.6631 64.3022C80.6586 64.3021 80.6541 64.302 80.4398 74.2997ZM41.8638 88.027C41.8618 86.4424 41.8598 84.8346 41.8579 83.2076C41.8403 68.5435 41.8265 52.3258 41.8265 37.5571L61.8265 37.5571C61.8265 52.3147 61.8403 68.5237 61.8578 83.1837C61.8587 83.8577 61.8595 84.5284 61.8603 85.1955L53.2577 86.4137L41.8638 88.027Z" fill="white"/>
<path d="M35.3339 19.1856C35.3339 19.1856 75.1038 18.768 80.6485 19.1856C80.6485 19.1856 111.355 19.8432 111.115 46.9514C110.874 74.0597 92.4314 72.734 80.6485 74.4042C68.8655 76.0743 36.0646 84.7613 25 75.4712" stroke="white" stroke-width="20"/>
<defs>
<linearGradient id="paint0_linear" x1="0" y1="150" x2="150" y2="0" gradientUnits="userSpaceOnUse">
<stop stop-color="#6E62E4"/>
<stop offset="1" stop-color="#8D82F6"/>
</linearGradient>
</defs>
</svg>
