<svg id="Capa_1" enable-background="new 0 0 512 512" height="512" viewBox="0 0 512 512" width="512" xmlns="http://www.w3.org/2000/svg" xmlns:xlink="http://www.w3.org/1999/xlink"><linearGradient id="SVGID_1_" gradientUnits="userSpaceOnUse" x1="8.753" x2="524.202" y1="401.161" y2="103.566"><stop offset="0" stop-color="#dcfdee" stop-opacity="0"/><stop offset=".6288" stop-color="#d2f3e4"/></linearGradient><g><g><path d="m418.32 2.5c-55.666-9.521-178.298 12.183-200.004 105.017-14.431 61.722-14.007 112.075-50.427 113.02-21.67.562-32.97-44.31-62.889-48.001-39.047-4.817-66.145 27.695-83.057 57.138-37.205 64.772-25.571 174.918 23.354 228.632 118.488 130.086 259.197-5.952 319.358-112.309 38.585-68.213 125.637-123.352 143.767-200.248 15.177-64.376-18.503-131.003-90.102-143.249z" fill="url(#SVGID_1_)"/></g><g><g><g><path d="m350.232 500.339h-188.464c-16.569 0-30-13.431-30-30v-380.678c0-16.569 13.431-30 30-30h188.464c16.569 0 30 13.431 30 30v380.678c0 16.569-13.431 30-30 30z" fill="#2626bc" opacity=".1"/><path d="m350.232 476.339h-188.464c-16.569 0-30-13.431-30-30v-380.678c0-16.569 13.431-30 30-30h188.464c16.569 0 30 13.431 30 30v380.678c0 16.569-13.431 30-30 30z" fill="#6583fe"/><path d="m131.77 78.57h248.46v354.86h-248.46z" fill="#8399fe"/><path d="m332.84 130.54c0 92.12-74.68 166.81-166.8 166.81-11.75 0-23.21-1.21-34.27-3.53v-215.25h192.81c5.36 16.35 8.26 33.82 8.26 51.97z" fill="#9fb0fe"/><path d="m350.232 481.339h-188.464c-19.299 0-35-15.701-35-35v-380.678c0-19.299 15.701-35 35-35h188.464c19.299 0 35 15.701 35 35v380.678c0 19.299-15.701 35-35 35zm-188.464-440.678c-13.785 0-25 11.215-25 25v380.678c0 13.785 11.215 25 25 25h188.464c13.785 0 25-11.215 25-25v-380.678c0-13.785-11.215-25-25-25z" fill="#2626bc"/><g><path d="m273.483 63.031h-34.966c-2.761 0-5-2.239-5-5s2.239-5 5-5h34.966c2.761 0 5 2.239 5 5s-2.239 5-5 5z" fill="#b7c5ff"/></g><circle cx="296.813" cy="58.03" fill="#b7c5ff" r="5.002"/></g><path d="m314.343 399.084h-116.686c-2.761 0-5-2.239-5-5v-14.431c0-2.761 2.239-5 5-5h116.687c2.761 0 5 2.239 5 5v14.431c-.001 2.761-2.239 5-5.001 5z" fill="#ff5ba8"/><path d="m350.47 78.57c-14.65 37.86-51.42 64.72-94.47 64.72s-79.82-26.86-94.47-64.72z" fill="#b7c5ff"/><g><circle cx="324.783" cy="264.543" fill="#6583fe" r="28.297"/><circle cx="187.217" cy="177.188" fill="#8399fe" r="28.297"/><g><path d="m321.39 173.652v71.34c0 2.76-2.24 5-5 5h-120.78c-2.76 0-5-2.24-5-5v-71.34c0-2.76 2.24-5 5-5h120.78c2.76 0 5 2.24 5 5z" fill="#d2deff"/><path d="m215.51 177.192c0 14.47-10.87 26.42-24.9 28.08v-31.62c0-2.76 2.24-5 5-5h18.59c.85 2.69 1.31 5.56 1.31 8.54z" fill="#b7c5ff"/><path d="m219.504 228.756h-11.681c-2.761 0-5 2.239-5 5s2.239 5 5 5h11.681c2.761 0 5-2.239 5-5s-2.239-5-5-5z" fill="#6583fe"/><path d="m258.504 211.581h-50.681c-2.761 0-5 2.239-5 5s2.239 5 5 5h50.681c2.761 0 5-2.239 5-5s-2.239-5-5-5z" fill="#9fb0fe"/><path d="m251.824 228.756h-11.681c-2.761 0-5 2.239-5 5s2.239 5 5 5h11.681c2.761 0 5-2.239 5-5s-2.239-5-5-5z" fill="#6583fe"/><path d="m284.144 228.756h-11.681c-2.761 0-5 2.239-5 5s2.239 5 5 5h11.681c2.761 0 5-2.239 5-5s-2.239-5-5-5z" fill="#6583fe"/><circle cx="300.822" cy="189.612" fill="#ff7eb8" r="9.01"/><circle cx="288.996" cy="189.612" fill="#02ffb3" r="9.01"/></g><g><g><g><circle cx="324.783" cy="252.999" fill="#ff7eb8" r="28.297"/><g><path d="m319.765 268.041c-1.499 0-2.98-.671-3.965-1.949-1.685-2.188-1.276-5.328.912-7.013l7.897-6.08-7.897-6.08c-2.188-1.685-2.596-4.824-.912-7.013 1.685-2.187 4.826-2.594 7.012-.911l13.042 10.042c1.229.946 1.95 2.41 1.95 3.962s-.72 3.016-1.95 3.962l-13.042 10.042c-.909.7-1.982 1.038-3.047 1.038z" fill="#fff"/></g></g></g><g><g><circle cx="187.217" cy="165.645" fill="#ff7eb8" r="28.297"/><g><path d="m192.235 180.686c1.499 0 2.98-.671 3.965-1.949 1.685-2.188 1.276-5.328-.912-7.013l-7.897-6.08 7.897-6.08c2.188-1.685 2.596-4.824.912-7.013-1.685-2.187-4.826-2.594-7.012-.911l-13.042 10.042c-1.229.946-1.95 2.41-1.95 3.962s.72 3.016 1.95 3.962l13.042 10.042c.909.7 1.982 1.038 3.047 1.038z" fill="#fff"/></g></g></g></g></g><g fill="#fff"><path d="m352.644 114.808h-23.681c-2.761 0-5 2.239-5 5s2.239 5 5 5h23.681c2.761 0 5-2.239 5-5s-2.239-5-5-5z"/><path d="m352.644 97.052h-23.681c-2.761 0-5 2.239-5 5s2.239 5 5 5h23.681c2.761 0 5-2.239 5-5s-2.239-5-5-5z"/></g><g><path d="m300.84 338.372h-89.68c-2.761 0-5 2.239-5 5s2.239 5 5 5h89.681c2.761 0 5-2.239 5-5s-2.239-5-5.001-5z" fill="#fff"/><path d="m290.34 318.944h-68.68c-2.761 0-5 2.239-5 5s2.239 5 5 5h68.681c2.761 0 5-2.239 5-5s-2.239-5-5.001-5z" fill="#fff"/><path d="m261.84 295.599h-11.68c-2.761 0-5 2.239-5 5s2.239 5 5 5h11.681c2.761 0 5-2.239 5-5s-2.239-5-5.001-5z" fill="#ffa8cf"/></g></g><path d="m72.801 319.891c-7.88 0-14.291-6.411-14.291-14.292s6.411-14.292 14.291-14.292 14.292 6.411 14.292 14.292-6.412 14.292-14.292 14.292zm0-18.583c-2.366 0-4.291 1.925-4.291 4.292s1.925 4.292 4.291 4.292 4.292-1.925 4.292-4.292-1.926-4.292-4.292-4.292z" fill="#ff5ba8"/><path d="m428.167 367.305c-7.88 0-14.291-6.411-14.291-14.292s6.411-14.292 14.291-14.292c7.881 0 14.292 6.411 14.292 14.292s-6.411 14.292-14.292 14.292zm0-18.583c-2.366 0-4.291 1.925-4.291 4.292s1.925 4.292 4.291 4.292 4.292-1.925 4.292-4.292-1.926-4.292-4.292-4.292z" fill="#01eca5"/><path d="m94.801 142.366c-2.761 0-5-2.239-5-5 0-3.309-2.692-6-6-6-2.761 0-5-2.239-5-5s2.239-5 5-5c3.309 0 6-2.691 6-6 0-2.761 2.239-5 5-5s5 2.239 5 5c0 3.309 2.691 6 6 6 2.761 0 5 2.239 5 5s-2.239 5-5 5c-3.308 0-6 2.691-6 6 0 2.761-2.239 5-5 5z" fill="#01eca5"/><g fill="#6583fe"><path d="m426.459 113.052c-2.762 0-5-2.239-5-5 0-3.309-2.691-6-6-6-2.762 0-5-2.239-5-5s2.238-5 5-5c3.309 0 6-2.691 6-6 0-2.761 2.238-5 5-5s5 2.239 5 5c0 3.309 2.691 6 6 6 2.762 0 5 2.239 5 5s-2.238 5-5 5c-3.309 0-6 2.691-6 6 0 2.761-2.238 5-5 5z"/><path d="m94.801 374.013c-2.761 0-5-2.239-5-5 0-3.309-2.692-6-6-6-2.761 0-5-2.239-5-5s2.239-5 5-5c3.309 0 6-2.691 6-6 0-2.761 2.239-5 5-5s5 2.239 5 5c0 3.309 2.691 6 6 6 2.761 0 5 2.239 5 5s-2.239 5-5 5c-3.308 0-6 2.691-6 6 0 2.761-2.239 5-5 5z"/></g></g></g></svg>