<svg width="50" height="50" viewBox="0 0 50 50" fill="none" xmlns="http://www.w3.org/2000/svg">
<path d="M25.0126 39.6083H24.9709C24.8418 39.6083 11.9188 39.5833 8.65842 38.6979C6.86555 38.2149 5.4654 36.814 4.98342 35.0208C4.39713 31.7133 4.11401 28.3591 4.13759 25C4.12244 21.6355 4.41322 18.2765 5.00634 14.9646C5.50156 13.1698 6.89557 11.7624 8.68551 11.25C11.8563 10.4167 24.423 10.4167 24.9563 10.4167H25.0001C25.1313 10.4167 38.0876 10.4417 41.3147 11.3271C43.1038 11.8125 44.5011 13.2106 44.9855 15C45.5905 18.3199 45.8744 21.6903 45.8334 25.0646C45.848 28.4251 45.5565 31.7799 44.9626 35.0875C44.4744 36.8784 43.0734 38.2763 41.2813 38.7604C38.1147 39.6 25.5459 39.6083 25.0126 39.6083ZM20.8459 18.7604L20.8355 31.2604L31.6938 25.0104L20.8459 18.7604Z" fill="#6E62E4"/>
</svg>
