<svg id="Capa_1" enable-background="new 0 0 512 512" height="512" viewBox="0 0 512 512" width="512" xmlns="http://www.w3.org/2000/svg" xmlns:xlink="http://www.w3.org/1999/xlink"><linearGradient id="SVGID_1_" gradientUnits="userSpaceOnUse" x1="4.722" x2="389.966" y1="449.152" y2="-9.964"><stop offset="0" stop-color="#d2deff" stop-opacity="0"/><stop offset=".6852" stop-color="#d2deff"/></linearGradient><g><g><path d="m451.798 43.963c-160.556-97.869-410.51-8.611-439.594 61.949-38.908 94.394 26.578 110.528 38.743 187.874 9.761 62.061-51.182 121.495-16.394 176.282 37.883 59.663 163.465 44.681 211.198 16.447 87.376-51.683 43.309-112.012 84.684-187.299 39.407-71.707 116.244-42.625 160.961-99.99 42.5-54.521 14.31-122.402-39.598-155.263z" fill="url(#SVGID_1_)"/></g><g><g><g><g><path d="m350.232 500.339h-188.464c-16.569 0-30-13.431-30-30v-380.678c0-16.569 13.431-30 30-30h188.464c16.569 0 30 13.431 30 30v380.678c0 16.569-13.431 30-30 30z" fill="#2626bc" opacity=".1"/><path d="m350.232 476.339h-188.464c-16.569 0-30-13.431-30-30v-380.678c0-16.569 13.431-30 30-30h188.464c16.569 0 30 13.431 30 30v380.678c0 16.569-13.431 30-30 30z" fill="#6583fe"/><path d="m131.77 78.57h248.46v354.86h-248.46z" fill="#fff"/><path d="m131.77 317.94h248.46v115.49h-248.46z" fill="#97ffd2"/><path d="m351.45 317.94v35.95c0 5.52-4.48 10-10 10h-170.9c-5.52 0-10-4.48-10-10v-35.95z" fill="#02ffb3"/><path d="m350.232 481.339h-188.464c-19.299 0-35-15.701-35-35v-380.678c0-19.299 15.701-35 35-35h188.465c19.299 0 35 15.701 35 35v380.678c-.001 19.299-15.702 35-35.001 35zm-188.464-440.678c-13.785 0-25 11.215-25 25v380.678c0 13.785 11.215 25 25 25h188.465c13.785 0 25-11.215 25-25v-380.678c0-13.785-11.215-25-25-25z" fill="#2626bc"/><g><path d="m273.483 63.031h-34.966c-2.761 0-5-2.239-5-5s2.239-5 5-5h34.966c2.761 0 5 2.239 5 5s-2.239 5-5 5z" fill="#b7c5ff"/></g><circle cx="296.813" cy="58.03" fill="#b7c5ff" r="5.002"/></g></g><g><circle cx="256" cy="386.318" fill="#ff7eb8" r="22.218"/><path d="m264.84 381.318h-3.84v-3.84c0-2.761-2.239-5-5-5s-5 2.239-5 5v3.84h-3.84c-2.761 0-5 2.239-5 5s2.239 5 5 5h3.84v3.84c0 2.761 2.239 5 5 5s5-2.239 5-5v-3.84h3.84c2.761 0 5-2.239 5-5s-2.238-5-5-5z" fill="#fff"/></g><g><g><path d="m341.449 260.589h-170.898c-5.523 0-10-4.477-10-10v-51.892c0-5.523 4.477-10 10-10h170.897c5.523 0 10 4.477 10 10v51.892c.001 5.523-4.476 10-9.999 10z" fill="#9fb0fe"/><path d="m341.449 346.901h-170.898c-5.523 0-10-4.477-10-10v-51.892c0-5.523 4.477-10 10-10h170.897c5.523 0 10 4.477 10 10v51.892c.001 5.523-4.476 10-9.999 10z" fill="#8399fe"/></g><path d="m193.699 201.897h-14.681c-2.761 0-5 2.239-5 5s2.239 5 5 5h14.681c2.761 0 5-2.239 5-5s-2.239-5-5-5z" fill="#fff"/><path d="m193.699 288.336h-14.681c-2.761 0-5 2.239-5 5s2.239 5 5 5h14.681c2.761 0 5-2.239 5-5s-2.239-5-5-5z" fill="#fff"/><g><circle cx="330.112" cy="142.945" fill="#d2deff" r="28.297"/><path d="m351.45 142.383v21.89c0 5.53-4.48 10-10 10h-170.9c-5.52 0-10-4.47-10-10v-21.89c0-5.52 4.48-10 10-10h170.9c5.52 0 10 4.48 10 10z" fill="#b7c5ff"/><path d="m351.45 142.383v19.14c-5.19 5.96-12.82 9.72-21.34 9.72-15.63 0-28.29-12.67-28.29-28.3 0-3.74.72-7.3 2.04-10.56h37.59c5.52 0 10 4.48 10 10z" fill="#9fb0fe"/><g><circle cx="330.112" cy="127.904" fill="#02ffb3" r="28.297"/><g><path d="m325.094 112.862c-1.499 0-2.98.671-3.965 1.949-1.685 2.188-1.276 5.328.912 7.013l7.897 6.08-7.897 6.08c-2.188 1.685-2.596 4.824-.912 7.013 1.685 2.187 4.826 2.594 7.012.911l13.042-10.042c1.229-.946 1.95-2.41 1.95-3.962s-.72-3.016-1.95-3.962l-13.042-10.042c-.909-.699-1.982-1.038-3.047-1.038z" fill="#00b574"/></g></g></g></g><g fill="#ff7eb8"><g><path d="m186.861 403.537h-8.681c-2.761 0-5 2.239-5 5s2.239 5 5 5h8.681c2.761 0 5-2.239 5-5s-2.239-5-5-5z"/><path d="m218.944 403.537h-8.681c-2.761 0-5 2.239-5 5s2.239 5 5 5h8.681c2.761 0 5-2.239 5-5s-2.239-5-5-5z"/></g><g><path d="m301.737 403.537h-8.681c-2.761 0-5 2.239-5 5s2.239 5 5 5h8.681c2.761 0 5-2.239 5-5s-2.239-5-5-5z"/><path d="m333.82 403.537h-8.681c-2.761 0-5 2.239-5 5s2.239 5 5 5h8.681c2.761 0 5-2.239 5-5s-2.239-5-5-5z"/></g></g></g><path d="m437.277 295.564c-7.88 0-14.291-6.411-14.291-14.292s6.411-14.292 14.291-14.292c7.881 0 14.292 6.411 14.292 14.292s-6.411 14.292-14.292 14.292zm0-18.583c-2.366 0-4.291 1.925-4.291 4.292s1.925 4.292 4.291 4.292 4.292-1.925 4.292-4.292-1.925-4.292-4.292-4.292z" fill="#6583fe"/><path d="m68.572 400.61c-7.88 0-14.291-6.411-14.291-14.292s6.411-14.292 14.291-14.292c7.881 0 14.292 6.411 14.292 14.292s-6.411 14.292-14.292 14.292zm0-18.583c-2.366 0-4.291 1.925-4.291 4.292s1.925 4.292 4.291 4.292 4.292-1.925 4.292-4.292-1.926-4.292-4.292-4.292z" fill="#ff5ba8"/><path d="m422.771 338.878c-2.762 0-5-2.239-5-5 0-3.309-2.691-6-6-6-2.762 0-5-2.239-5-5s2.238-5 5-5c3.309 0 6-2.691 6-6 0-2.761 2.238-5 5-5s5 2.239 5 5c0 3.309 2.691 6 6 6 2.762 0 5 2.239 5 5s-2.238 5-5 5c-3.309 0-6 2.691-6 6 0 2.761-2.238 5-5 5z" fill="#01eca5"/><path d="m84.039 335.798c-2.762 0-5-2.239-5-5 0-3.309-2.691-6-6-6-2.762 0-5-2.239-5-5s2.238-5 5-5c3.309 0 6-2.691 6-6 0-2.761 2.238-5 5-5s5 2.239 5 5c0 3.309 2.691 6 6 6 2.762 0 5 2.239 5 5s-2.238 5-5 5c-3.309 0-6 2.691-6 6 0 2.761-2.238 5-5 5z" fill="#01eca5"/><path d="m428.185 132.517c-2.762 0-5-2.239-5-5 0-3.309-2.691-6-6-6-2.762 0-5-2.239-5-5s2.238-5 5-5c3.309 0 6-2.691 6-6 0-2.761 2.238-5 5-5s5 2.239 5 5c0 3.309 2.691 6 6 6 2.762 0 5 2.239 5 5s-2.238 5-5 5c-3.309 0-6 2.691-6 6 0 2.761-2.239 5-5 5z" fill="#6583fe"/></g></g></svg>