<svg width="20" height="20" viewBox="0 0 20 20" fill="none" xmlns="http://www.w3.org/2000/svg">
<path d="M6.70946 14.857L7.25405 15.1482C8.09801 15.5994 9.0405 15.8348 9.99749 15.8333L10 15.8333C13.2218 15.8333 15.8333 13.2218 15.8333 10C15.8333 6.77822 13.2218 4.16667 10 4.16667C6.77823 4.16667 4.16668 6.77822 4.16668 10V10.0025C4.16523 10.9595 4.4006 11.902 4.85181 12.746L5.14296 13.2905L4.69528 15.3047L6.70946 14.857ZM2.50001 17.5L3.38201 13.5317C2.80116 12.4453 2.49815 11.232 2.50001 10C2.50001 5.85775 5.85776 2.5 10 2.5C14.1423 2.5 17.5 5.85775 17.5 10C17.5 14.1422 14.1423 17.5 10 17.5C8.76802 17.5018 7.55472 17.1988 6.46826 16.618L2.50001 17.5Z" fill="white"/>
</svg>
